<?xml version="1.0" encoding="UTF-8"?>
<svg width="172px" height="73px" viewBox="0 0 172 73" version="1.1" xmlns="http://www.w3.org/2000/svg" xmlns:xlink="http://www.w3.org/1999/xlink">
    <!-- Generator: Sketch 52.2 (67145) - http://www.bohemiancoding.com/sketch -->
    <title>logo</title>
    <desc>Created with Sketch.</desc>
    <g id="Food" stroke="none" stroke-width="1" fill="none" fill-rule="evenodd">
        <path d="M75.4453125,72 L60.0644531,72 L60.0644531,53.640625 L61.578125,19.65625 L42.9257812,72 L32.5253906,72 L13.921875,19.65625 L15.4355469,53.640625 L15.4355469,72 L0.103515625,72 L0.103515625,0.90625 L20.171875,0.90625 L37.75,51.6386719 L55.328125,0.90625 L75.4453125,0.90625 L75.4453125,72 Z M128.033203,57.8886719 L102.837891,57.8886719 L98.1992188,72 L81.890625,72 L108.257812,0.90625 L122.515625,0.90625 L149.029297,72 L132.671875,72 L128.033203,57.8886719 Z M123.931641,45.4863281 L115.386719,19.5585938 L106.890625,45.4863281 L123.931641,45.4863281 Z M163.482422,56.9121094 C165.110034,56.9121094 166.558587,57.2539028 167.828125,57.9375 C169.097663,58.6210972 170.074215,59.5569602 170.757812,60.7451172 C171.44141,61.9332742 171.783203,63.2597583 171.783203,64.7246094 C171.783203,66.1894604 171.44141,67.5159446 170.757812,68.7041016 C170.074215,69.8922585 169.097663,70.8281216 167.828125,71.5117188 C166.558587,72.1953159 165.110034,72.5371094 163.482422,72.5371094 C161.85481,72.5371094 160.414394,72.1953159 159.161133,71.5117188 C157.907871,70.8281216 156.939457,69.8922585 156.255859,68.7041016 C155.572262,67.5159446 155.230469,66.1894604 155.230469,64.7246094 C155.230469,63.2597583 155.572262,61.9332742 156.255859,60.7451172 C156.939457,59.5569602 157.907871,58.6210972 159.161133,57.9375 C160.414394,57.2539028 161.85481,56.9121094 163.482422,56.9121094 Z" id="logo" fill="#FFFFFF"></path>
    </g>
</svg>