<?xml version="1.0" encoding="UTF-8"?>
<svg width="85px" height="58px" viewBox="0 0 85 58" version="1.1" xmlns="http://www.w3.org/2000/svg" xmlns:xlink="http://www.w3.org/1999/xlink">
    <!-- Generator: Sketch 52.2 (67145) - http://www.bohemiancoding.com/sketch -->
    <title>logo</title>
    <desc>Created with Sketch.</desc>
    <g id="Food" stroke="none" stroke-width="1" fill="none" fill-rule="evenodd">
        <g id="Artboard" transform="translate(-785.000000, -728.000000)" fill="#FFFFFF">
            <path d="M787.149133,741.429488 L793.859692,748.124353 C794.085344,748.349477 794.212158,748.655127 794.212158,748.973874 L794.212158,784.76749 C794.212158,785.430232 793.6749,785.96749 793.012158,785.96749 L786.301599,785.96749 C785.638857,785.96749 785.101599,785.430232 785.101599,784.76749 L785.101599,742.279009 C785.101599,741.616268 785.638857,741.079009 786.301599,741.079009 C786.619372,741.079009 786.924171,741.205052 787.149133,741.429488 Z M843.223804,745.051318 C843.448767,744.826881 843.753565,744.700839 844.071338,744.700839 C844.73408,744.700839 845.271338,745.238097 845.271338,745.900839 L845.271338,784.76749 C845.271338,785.430232 844.73408,785.96749 844.071338,785.96749 L837.360779,785.96749 C836.698037,785.96749 836.160779,785.430232 836.160779,784.76749 L836.160779,752.595703 C836.160779,752.276956 836.287593,751.971306 836.513245,751.746182 L843.223804,745.051318 Z M820.242329,759.307767 L820.242329,784.8 C820.242329,785.462742 819.70507,786 819.042329,786 L812.331769,786 C811.669027,786 811.131769,785.462742 811.131769,784.8 L811.131769,764.399157 C811.131769,764.319509 811.139687,764.240679 811.155087,764.163718 L811.133345,756.022167 C811.132495,755.703604 811.258348,755.397776 811.483169,755.172081 L838.180189,728.371343 C838.405365,728.145292 838.711295,728.018224 839.030361,728.018224 L844.040443,728.018224 C844.703185,728.018224 845.240443,728.555482 845.240443,729.218224 L845.240443,733.685997 C845.240443,734.003192 845.114857,734.307484 844.891142,734.532349 L820.242329,759.307767 Z M785,728.754693 C785,728.337887 785.337887,728 785.754693,728 L795.859574,728 C796.178424,728 796.484166,728.126897 796.709307,728.352678 L812.501679,744.189993 C812.968364,744.658006 812.968751,745.415278 812.502545,745.883767 L807.753998,750.65557 C807.752684,750.65689 807.751367,750.658207 807.750048,750.659521 C807.280383,751.127112 806.520586,751.125431 806.052996,750.655766 L785.349596,729.860532 C785.1257,729.635643 785,729.331224 785,729.013884 L785,728.754693 Z M862.08944,776.812311 L868.8,776.812311 C869.462742,776.812311 870,777.349569 870,778.012311 L870,784.76749 C870,785.430232 869.462742,785.96749 868.8,785.96749 L862.08944,785.96749 C861.426699,785.96749 860.88944,785.430232 860.88944,784.76749 L860.88944,778.012311 C860.88944,777.349569 861.426699,776.812311 862.08944,776.812311 Z" id="logo"></path>
        </g>
    </g>
</svg>